<svg width="51" height="51" viewBox="0 0 51 51" fill="none" xmlns="http://www.w3.org/2000/svg">
<path fill-rule="evenodd" clip-rule="evenodd" d="M50.3289 47.4938L45.4655 43.1319C45.0965 42.7964 44.627 42.6118 44.1239 42.6118H29.3823L39.7799 27.0602L39.7967 27.077L39.7967 27.0769L39.7968 27.0769C39.9477 26.842 40.0986 26.6072 40.2327 26.3724L40.4004 26.1207C41.9098 23.4868 42.698 20.5174 42.698 17.4474C42.698 7.83454 34.9165 0 25.3407 0C15.7648 0 7.98341 7.81776 7.98341 17.4474C7.98341 21.1046 9.09025 24.6109 11.2033 27.5803H11.2201L21.4332 42.6118H6.87615C6.38981 42.6118 5.90347 42.7964 5.53452 43.1319L0.671131 47.4938C0.0506299 48.0474 -0.167384 48.9197 0.134482 49.7082C0.436347 50.4967 1.17424 51 2.01276 51H49.004C49.8593 51 50.5636 50.4967 50.8655 49.7082C51.1674 48.9197 50.9494 48.0474 50.3289 47.4938ZM11.958 26.3053C10.2306 23.6714 9.32503 20.6181 9.32503 17.4474C9.32503 8.5727 16.5027 1.34211 25.3407 1.34211C34.1786 1.34211 41.3563 8.55592 41.3563 17.4474C41.3563 20.3497 40.5849 23.1681 39.1259 25.6342L25.978 45.2793C25.8438 45.4638 25.6426 45.5813 25.4245 45.5813C25.2065 45.5813 24.9885 45.4806 24.8711 45.2793L11.9747 26.3053H11.958ZM49.6245 49.2217C49.591 49.3224 49.44 49.6579 49.004 49.6579H2.01276C1.5935 49.6579 1.40903 49.3224 1.37548 49.2217C1.34194 49.1211 1.24132 48.7687 1.55996 48.4836L6.42335 44.1217C6.55751 44.0211 6.70845 43.9539 6.87615 43.9539H22.3388L23.7643 46.051C24.1332 46.6046 24.7537 46.9401 25.4245 46.9401C26.0954 46.9401 26.7158 46.6046 27.0848 46.051L28.4935 43.9539H44.1239C44.2916 43.9539 44.4593 44.0043 44.5767 44.1217L49.44 48.4836C49.7587 48.7687 49.6581 49.1211 49.6245 49.2217ZM36.7401 17.2796C36.7401 10.9046 31.5395 5.70395 25.1645 5.70395C18.7895 5.70395 13.5888 10.9046 13.5888 17.2796C13.5888 23.6546 18.7895 28.8553 25.1645 28.8553C31.5563 28.8553 36.7401 23.6546 36.7401 17.2796ZM14.9309 17.2796C14.9309 11.6428 19.5276 7.04605 25.1645 7.04605C30.8013 7.04605 35.398 11.6428 35.398 17.2796C35.398 22.9164 30.8013 27.5132 25.1645 27.5132C19.5276 27.5132 14.9309 22.9164 14.9309 17.2796ZM27.72 19.9859V22.0303C27.72 23.4882 26.547 24.6612 25.0891 24.6612C23.6312 24.6612 22.4582 23.4882 22.4582 22.0303V19.9859H20.4138C18.9559 19.9859 17.7829 18.8129 17.7829 17.355C17.7829 15.8971 18.9559 14.7241 20.4138 14.7241H22.4582V12.5289C22.4582 11.071 23.6312 9.89803 25.0891 9.89803C26.547 9.89803 27.72 11.071 27.72 12.5289V14.7241H29.9152C31.373 14.7241 32.5461 15.8971 32.5461 17.355C32.5461 18.8129 31.373 19.9859 29.9152 19.9859H27.72ZM26.3794 22.0303V19.3156C26.3794 18.947 26.681 18.6453 27.0497 18.6453H29.9152C30.619 18.6453 31.2055 18.0588 31.2055 17.355C31.2055 16.6512 30.619 16.0647 29.9152 16.0647H27.0497C26.9994 16.0647 26.9659 16.0647 26.9156 16.0479C26.614 15.9809 26.3794 15.7128 26.3794 15.3944V12.5289C26.3794 11.8251 25.7929 11.2386 25.0891 11.2386C24.3853 11.2386 23.7988 11.8251 23.7988 12.5289V15.3944C23.7988 15.7631 23.4971 16.0647 23.1285 16.0647H20.4138C19.71 16.0647 19.1235 16.6512 19.1235 17.355C19.1235 18.0588 19.71 18.6453 20.4138 18.6453H23.1285C23.4971 18.6453 23.7988 18.947 23.7988 19.3156V19.3491V19.3826V22.0303C23.7988 22.7341 24.3853 23.3206 25.0891 23.3206C25.7929 23.3206 26.3794 22.7341 26.3794 22.0303Z" fill="#FF4B4B" fill-opacity="0.28"/>
</svg>
