<svg xmlns="http://www.w3.org/2000/svg" width="50" height="50" fill="none" viewBox="0 0 50 50"><path fill="#5163C8" fill-opacity=".3" fill-rule="evenodd" d="M24.9178 25.1645C31.8586 25.1645 37.5 19.523 37.5 12.5822C37.5 5.64145 31.8586 0 24.9178 0C17.977 0 12.3355 5.64145 12.3355 12.5822C12.3355 19.523 17.977 25.1645 24.9178 25.1645ZM24.9178 1.31579C31.1349 1.31579 36.1842 6.36513 36.1842 12.5822C36.1842 18.7993 31.1349 23.8487 24.9178 23.8487C18.7007 23.8487 13.6513 18.7993 13.6513 12.5822C13.6513 6.36513 18.7007 1.31579 24.9178 1.31579ZM49.7634 38.2323C49.4018 37.2475 48.6787 36.4597 47.7255 36.0166C46.7723 35.5734 45.7041 35.5242 44.7016 35.8853L37.0267 38.6918C37.2075 38.2487 37.3061 37.7563 37.3061 37.2311C37.3061 35.0647 35.5312 33.2921 33.3618 33.2921H26.6566C26.6237 33.2921 26.5909 33.2921 26.5416 33.2757L26.3614 33.2424C25.3438 33.0552 21.189 32.2908 19.179 31.6673C15.662 30.5676 11.6849 31.9135 10.025 32.5864C9.99212 31.8971 9.41691 31.339 8.71024 31.339H1.31475C0.591639 31.339 0 31.9299 0 32.652V45.9461C0 46.6683 0.591639 47.2591 1.31475 47.2591H8.71024C9.43335 47.2591 10.025 46.6683 10.025 45.9461V45.8148C10.6659 45.8805 15.8921 46.4713 20.2143 48.8511C21.5948 49.6061 23.304 50 25.2926 50C26.2786 50 27.3304 49.9015 28.4644 49.721C30.9809 49.2994 32.952 48.5415 33.2054 48.4441L33.2139 48.4408L47.4133 43.2381C49.4511 42.5323 50.5029 40.2674 49.7634 38.2323ZM8.71024 45.9461H1.31475V32.652H8.71024V45.9461ZM46.9531 42.0071L32.7866 47.2099L32.7373 47.2263C32.4415 47.3412 25.2432 50.1313 20.8553 47.7187C16.0235 45.0598 10.3208 44.5346 10.0743 44.5182H10.025V34.0307C10.9782 33.604 15.2511 31.8314 18.7845 32.9146C20.9867 33.604 25.4405 34.4082 26.3115 34.5559C26.4265 34.5723 26.5416 34.5887 26.6566 34.5887H33.3618C34.8081 34.5887 35.9914 35.7704 35.9914 37.2147C35.9914 38.659 34.8081 39.8407 33.3618 39.8407H22.6795C22.3179 39.8407 22.0221 40.1361 22.0221 40.4972C22.0221 40.8583 22.3179 41.1537 22.6795 41.1537H33.3618C33.8713 41.1537 34.3643 41.0552 34.8081 40.8747L45.1453 37.0834C45.8027 36.8372 46.5258 36.87 47.1503 37.1655C47.7913 37.4609 48.2679 37.9861 48.5144 38.6426C49.0074 40.0048 48.3172 41.5148 46.9531 42.0071ZM22.144 15.3618H19.7311C18.2047 15.3618 16.9736 14.1118 16.9408 12.5987C16.9408 11.0526 18.2047 9.81908 19.7147 9.81908H22.1112V7.2204C22.1112 5.67434 23.375 4.44079 24.8851 4.44079C26.428 4.44079 27.659 5.70724 27.659 7.2204V9.80263H30.2853C31.7953 9.80263 33.0264 11.0526 33.0592 12.5822C33.0592 14.1283 31.7953 15.3618 30.2853 15.3618H27.6919V17.7796C27.6919 19.3257 26.428 20.5592 24.9179 20.5592C23.375 20.5592 22.144 19.2928 22.144 17.7796V15.3618ZM22.7349 10.9704H19.7311C18.8448 10.9704 18.139 11.6941 18.139 12.5493C18.139 13.4375 18.8612 14.1447 19.7311 14.1447H22.7185C23.0467 14.1447 23.3094 14.4079 23.3094 14.7368V14.7862V14.8355V17.7796C23.3094 18.6678 24.0316 19.375 24.9015 19.375C25.7879 19.375 26.4937 18.6513 26.4937 17.7796V14.7697C26.4937 14.6053 26.5757 14.4572 26.6742 14.3586C26.7727 14.2434 26.9204 14.1776 27.0846 14.1776H30.2689C31.1388 14.1776 31.8446 13.4704 31.8774 12.5658C31.8774 11.6776 31.1552 10.9704 30.2853 10.9704H27.101C26.7727 10.9704 26.5101 10.7072 26.5101 10.3783V7.1875C26.5101 6.29934 25.7879 5.59211 24.9179 5.59211C24.0316 5.59211 23.3258 6.31579 23.3258 7.1875V10.3783C23.3258 10.5428 23.2437 10.6908 23.1452 10.7895C23.0467 10.9046 22.899 10.9704 22.7349 10.9704Z" clip-rule="evenodd"/></svg>