<svg width="51" height="51" viewBox="0 0 51 51" fill="none" xmlns="http://www.w3.org/2000/svg">
<path fill-rule="evenodd" clip-rule="evenodd" d="M46.9737 20.6349H48.8191C50.027 20.6349 51 21.6079 51 22.8158V48.9868C51 50.0941 50.0941 51 48.9868 51H2.01316C0.905921 51 0 50.0941 0 48.9868V22.648V21.3059V17.7829C0 16.6757 0.905921 15.7697 2.01316 15.7697H4.02632V2.01316C4.02632 0.905921 4.93224 0 6.03947 0H44.9605C46.0678 0 46.9737 0.905921 46.9737 2.01316V20.6349ZM6.03947 1.34211C5.67039 1.34211 5.36842 1.64408 5.36842 2.01316V15.7697H17.6319C18.4539 15.7697 19.1753 16.2563 19.4941 17.0112L20.8194 20.2155C20.9201 20.4671 21.1717 20.6349 21.4401 20.6349H25.5H26.2549H45.6316V2.01316C45.6316 1.64408 45.3296 1.34211 44.9605 1.34211H6.03947ZM48.9868 49.6579C49.3559 49.6579 49.6579 49.3559 49.6579 48.9868V22.8158C49.6579 22.3461 49.2888 21.977 48.8191 21.977H26.2549H25.5H21.4569C20.6349 21.977 19.9135 21.4905 19.5947 20.7355L18.2694 17.5312C18.1688 17.2796 17.9171 17.1118 17.6487 17.1118H2.01316C1.64408 17.1118 1.34211 17.4138 1.34211 17.7829V21.3059V22.648V48.9868C1.34211 49.3559 1.64408 49.6579 2.01316 49.6579H48.9868ZM40.4327 7.21381H10.3995C10.0314 7.21381 9.73026 6.91184 9.73026 6.54276C9.73026 6.17368 10.0314 5.87171 10.3995 5.87171H40.4327C40.8008 5.87171 41.102 6.17368 41.102 6.54276C41.102 6.91184 40.8008 7.21381 40.4327 7.21381ZM40.4327 10.5691C40.8008 10.5691 41.102 10.8711 41.102 11.2401C41.102 11.6092 40.8008 11.9112 40.4327 11.9112H10.3995C10.0314 11.9112 9.73026 11.6092 9.73026 11.2401C9.73026 10.8711 10.0314 10.5691 10.3995 10.5691H40.4327ZM40.4342 15.2664H24.6579C24.2906 15.2664 23.9901 15.5684 23.9901 15.9375C23.9901 16.3066 24.2906 16.6085 24.6579 16.6085H40.4342C40.8015 16.6085 41.102 16.3066 41.102 15.9375C41.102 15.5684 40.8015 15.2664 40.4342 15.2664ZM13.9243 35.8174C13.9243 29.476 19.0747 24.3256 25.4161 24.3256C31.7576 24.3256 36.9079 29.476 36.9079 35.8174C36.9079 42.1589 31.7576 47.3092 25.4161 47.3092C19.0747 47.3092 13.9243 42.1589 13.9243 35.8174ZM15.2664 35.8174C15.2664 41.4207 19.8128 45.9671 25.4161 45.9671C31.0194 45.9671 35.5658 41.4207 35.5658 35.8174C35.5658 30.2141 31.0194 25.6678 25.4161 25.6678C19.8128 25.6678 15.2664 30.2141 15.2664 35.8174ZM30.1117 33.2903H27.9432V31.1219C27.9432 29.6874 26.7756 28.5197 25.3411 28.5197C23.9065 28.5197 22.7389 29.6874 22.7389 31.1219V33.2903H20.7206C19.2861 33.2903 18.1184 34.458 18.1184 35.8925C18.1184 37.327 19.2861 38.4946 20.7206 38.4946H22.7389V40.513C22.7389 41.9475 23.9065 43.1151 25.3411 43.1151C26.7756 43.1151 27.9432 41.9475 27.9432 40.513V38.4946H30.1117C31.5462 38.4946 32.7138 37.327 32.7138 35.8925C32.7138 34.458 31.5462 33.2903 30.1117 33.2903ZM30.1117 37.1602H27.276C26.909 37.1602 26.6088 37.4605 26.6088 37.8274V40.513C26.6088 41.2136 26.0416 41.7807 25.3411 41.7807C24.6405 41.7807 24.0733 41.2136 24.0733 40.513V37.9108V37.8775V37.8441C24.0733 37.4771 23.7731 37.1769 23.4061 37.1769H20.7206C20.02 37.1769 19.4529 36.6098 19.4529 35.9092C19.4529 35.2086 20.02 34.6415 20.7206 34.6415H23.4061C23.7731 34.6415 24.0733 34.3412 24.0733 33.9742V31.1386C24.0733 30.438 24.6405 29.8709 25.3411 29.8709C26.0416 29.8709 26.6088 30.438 26.6088 31.1386V33.9742C26.6088 34.3412 26.909 34.6415 27.276 34.6415H30.1117C30.8122 34.6415 31.3794 35.2086 31.3794 35.9092C31.3794 36.6098 30.8122 37.1602 30.1117 37.1602Z" fill="#83CDA0" fill-opacity="0.38"/>
</svg>
